<?xml version="1.0" standalone="no"?>
<!DOCTYPE svg PUBLIC "-//W3C//DTD SVG 20010904//EN"
 "http://www.w3.org/TR/2001/REC-SVG-20010904/DTD/svg10.dtd">
<svg version="1.0" xmlns="http://www.w3.org/2000/svg"
 width="512.000000pt" height="512.000000pt" viewBox="0 0 512.000000 512.000000"
 preserveAspectRatio="xMidYMid meet">
    <rect width="100%" height="100%" rx="9999" ry="9999" fill="white" />
    <g transform="translate(0.000000,512.000000) scale(0.100000,-0.100000)" fill="#000000" stroke="none">
        <path d="M1052 3497 c-20 -22 -22 -33 -22 -161 0 -132 -1 -138 -25 -161 -23
        -24 -28 -25 -170 -25 -142 0 -147 -1 -170 -25 l-25 -24 0 -541 0 -541 25 -24
        c23 -24 28 -25 170 -25 142 0 147 -1 170 -25 24 -23 25 -29 25 -163 0 -191
        -11 -182 226 -182 239 0 224 -14 224 217 0 220 12 206 -196 213 -130 4 -156 8
        -171 23 -17 16 -18 51 -18 507 0 456 1 491 18 507 15 15 41 19 171 23 209 7
        196 -7 196 215 0 229 15 215 -226 215 -176 0 -181 -1 -202 -23z"/>
        <path d="M3662 3497 c-21 -22 -22 -33 -22 -194 0 -220 -12 -206 196 -213 130
        -4 156 -8 171 -23 17 -16 18 -51 18 -507 0 -456 -1 -491 -18 -507 -15 -15 -41
        -19 -171 -23 -209 -7 -196 7 -196 -215 0 -229 -15 -215 226 -215 235 0 224 -9
        224 184 0 132 1 138 25 161 23 24 28 25 170 25 142 0 147 1 170 25 l25 24 0
        541 0 541 -25 24 c-23 24 -28 25 -170 25 -142 0 -147 1 -170 25 -24 23 -25 29
        -25 163 0 191 11 182 -226 182 -176 0 -181 -1 -202 -23z"/>
        <path d="M1649 3061 l-24 -19 0 -517 0 -517 24 -19 c21 -17 41 -19 181 -19
        140 0 160 2 181 19 l24 19 0 517 0 517 -24 19 c-21 17 -41 19 -181 19 -140 0
        -160 -2 -181 -19z"/>
        <path d="M2305 3055 l-25 -24 0 -506 0 -506 25 -24 c24 -24 28 -25 182 -25
        127 0 163 3 181 16 22 15 22 15 22 352 0 289 2 341 16 360 15 21 21 22 188 22
        155 0 175 -2 189 -18 15 -17 17 -56 17 -354 l0 -335 23 -21 c22 -21 33 -22
        185 -22 149 0 164 2 182 20 19 19 20 33 20 383 0 357 0 364 -21 383 -18 16
        -40 19 -160 22 -162 4 -141 -11 -214 152 -73 163 -34 150 -441 150 l-345 0
        -24 -25z"/>
    </g>
</svg>
